mtllib material.mtl
o Default
v 0.000037427136703627184 -3.5000522136688232 -1.999999761581421
v -0.125 -3.5 -5.898463228959372e-8
v -0.12496257573366165 -3.50003981590271 -1.999999761581421
v 0.000037427136703627184 -3.5000522136688232 -5.898463228959372e-8
v 0.000037427136703627184 -3.5000522136688232 -5.898463228959372e-8
v -0.00003743171691894531 -0.00005221366882324219 -1.999999761581421
v -0.00003743171691894531 -0.00005221366882324219 -2.9802322387695312e-8
v 0.000037427136703627184 -3.5000522136688232 -1.999999761581421
v -0.12496257573366165 -3.50003981590271 -1.999999761581421
v -0.125 0 8.881784197001252e-16
v -0.125 0 -2
v -0.125 -3.5 -5.898463228959372e-8
v -0.125 -3.5 -5.898463228959372e-8
v -0.00003743171691894531 -0.00005221366882324219 -2.9802322387695312e-8
v -0.125 0 8.881784197001252e-16
v 0.000037427136703627184 -3.5000522136688232 -5.898463228959372e-8
v 0.000037427136703627184 -3.5000522136688232 -1.999999761581421
v -0.125 0 -2
v -0.00003743171691894531 -0.00005221366882324219 -1.999999761581421
v -0.12496257573366165 -3.50003981590271 -1.999999761581421
v -0.125 0 -2
v -0.00003743171691894531 -0.00005221366882324219 -2.9802322387695312e-8
v -0.00003743171691894531 -0.00005221366882324219 -1.999999761581421
v -0.125 0 8.881784197001252e-16
vt 0.5 0.875
vt 1 0.90625
vt 0.5 0.90625
vt 0.5 0.875
vt 1 0.875
vt 1 0.90625
vt 1 0
vt 0.5 0.875
vt 1 0.875
vt 1 0
vt 0.5 0
vt 0.5 0.875
vt 0.5 0
vt 1 0.875
vt 0.5 0.875
vt 0.5 0
vt 1 0
vt 1 0.875
vt 0.5 0
vt 0.46875 0.875
vt 0.5 0.875
vt 0.5 0
vt 0.46875 0
vt 0.46875 0.875
vt 0.5 0
vt 0.46875 0.875
vt 0.5 0.875
vt 0.5 0
vt 0.46875 0
vt 0.46875 0.875
vt 0.5 0.875
vt 1 0.90625
vt 0.5 0.90625
vt 0.5 0.875
vt 1 0.875
vt 1 0.90625
vn -0.00009918212612125596 -0.9999999948833266 0.000019906098304034782
vn -0.00009918212612125596 -0.9999999948833266 0.000019906098304034782
vn -0.00009918212612125596 -0.9999999948833266 0.000019906098304034782
vn -0.00041758428229441113 -0.99999991281168 0
vn -0.00041758428229441113 -0.99999991281168 0
vn -0.00041758428229441113 -0.99999991281168 0
vn 0.9999999997712715 0.00002138824388727147 0
vn 0.9999999997712715 0.00002138824388727147 0
vn 0.9999999997712715 0.00002138824388727147 0
vn 0.9999999997712716 0.00002138824388727147 0
vn 0.9999999997712716 0.00002138824388727147 0
vn 0.9999999997712716 0.00002138824388727147 0
vn -0.9999999999428351 -0.000010692525886753885 0
vn -0.9999999999428351 -0.000010692525886753885 0
vn -0.9999999999428351 -0.000010692525886753885 0
vn -0.999999999824928 3.153509928259136e-13 -0.000018712135948429163
vn -0.999999999824928 3.153509928259136e-13 -0.000018712135948429163
vn -0.999999999824928 3.153509928259136e-13 -0.000018712135948429163
vn 2.384829612683185e-7 -1.6852752336505844e-8 0.9999999999999715
vn 2.384829612683185e-7 -1.6852752336505844e-8 0.9999999999999715
vn 2.384829612683185e-7 -1.6852752336505844e-8 0.9999999999999715
vn -3.4817357449712565e-12 -8.337802903582044e-9 1
vn -3.4817357449712565e-12 -8.337802903582044e-9 1
vn -3.4817357449712565e-12 -8.337802903582044e-9 1
vn 0.000001907919983620365 4.0807057936405095e-11 -0.9999999999981799
vn 0.000001907919983620365 4.0807057936405095e-11 -0.9999999999981799
vn 0.000001907919983620365 4.0807057936405095e-11 -0.9999999999981799
vn -6.7561693500546205e-12 -6.811881918346552e-8 -0.9999999999999977
vn -6.7561693500546205e-12 -6.811881918346552e-8 -0.9999999999999977
vn -6.7561693500546205e-12 -6.811881918346552e-8 -0.9999999999999977
vn 0.00041783443620559406 0.9999999127071881 0
vn 0.00041783443620559406 0.9999999127071881 0
vn 0.00041783443620559406 0.9999999127071881 0
vn 0.00041783443620559396 0.999999912707188 0
vn 0.00041783443620559396 0.999999912707188 0
vn 0.00041783443620559396 0.999999912707188 0
g Scene
usemtl material1
f 1/1/1 2/2/2 3/3/3
f 1/4/4 4/5/5 2/6/6
f 5/7/7 6/8/8 7/9/9
f 5/10/10 8/11/11 6/12/12
f 9/13/13 10/14/14 11/15/15
f 9/16/16 12/17/17 10/18/18
f 13/19/19 14/20/20 15/21/21
f 13/22/22 16/23/23 14/24/24
f 17/25/25 18/26/26 19/27/27
f 17/28/28 20/29/29 18/30/30
f 21/31/31 22/32/32 23/33/33
f 21/34/34 24/35/35 22/36/36
